<svg xmlns="http://www.w3.org/2000/svg" xmlns:xlink="http://www.w3.org/1999/xlink" viewBox="0 0 1978.41 828.08"><defs><style>.cls-1{fill:#fff;stroke:#ed1c24;stroke-miterlimit:10;stroke-width:18px;}.cls-2{fill:#ed1c24;}.cls-3{opacity:0;}</style></defs><g id="Layer_1" data-name="Layer 1"><rect class="cls-1" x="1619.41" y="254.66" width="350" height="250" rx="20"/></g><g id="Layer_2" data-name="Layer 2"><path class="cls-2" d="M257.05,304.45l-57,.05a2.83,2.83,0,0,1-2.49-1.27L160.86,237.5c-.78-1.4.54-2.95,2.49-2.95l59.36-.05a2.82,2.82,0,0,1,2.52,1.32l34.33,65.73C260.29,302.94,259,304.45,257.05,304.45Z" transform="translate(1482.41 20.16)"/><path class="cls-2" d="M352.85,304.45l-57,.05a2.83,2.83,0,0,1-2.49-1.27L256.66,237.5c-.78-1.4.54-2.95,2.49-2.95l59.36-.05a2.79,2.79,0,0,1,2.51,1.32l34.34,65.73C356.09,302.94,354.78,304.45,352.85,304.45Z" transform="translate(1482.41 20.16)"/><path class="cls-2" d="M452,304.45l-57,.05a2.83,2.83,0,0,1-2.49-1.27L355.79,237.5c-.77-1.4.54-2.95,2.49-2.95l59.36-.05a2.82,2.82,0,0,1,2.52,1.32l34.33,65.73C455.22,302.94,453.91,304.45,452,304.45Z" transform="translate(1482.41 20.16)"/><image class="cls-3" width="1157" height="949" transform="translate(0 0) scale(0.87)" xlink:href="IMG_20211228_201733013_HDR.jpg"/></g><g id="Layer_3" data-name="Layer 3"><path class="cls-2" d="M224.62,354.79a7.52,7.52,0,0,1,1.7-4.77,7.68,7.68,0,0,1,4.42-2.38c4.66-1,7.47,2,20.43,8.85,2.83,1.49,3.45,1.75,4.09,2.72,2,3-.17,6.32-.69,15.66-.2,3.78,0,5.75,1.37,6.81A3.81,3.81,0,0,0,260,382c1.39-.86,1.16-2.58,2-5.11,0,0,.68-1.92,3.75-5.78C276.22,358,297.47,350,297.47,350c24.74-9.39,38.42-14.59,53.1-8.51a48.15,48.15,0,0,1,20.09,17.7c2.6,4.15,3.76,8,3.4,11.92-.17,1.9-.35,3.75-1.7,4.76-2.75,2.06-7.09-1.8-14.3-3.06-4.14-.73-7.05-.22-12.59.68-28.59,4.64-30.93,4-45.62,7.83-19.58,5.11-26.51,9.13-26.89,13.28a7.64,7.64,0,0,0,.68,3.74c1.73,3.77,6.24,5.13,8.85,5.79,20.77,5.28,43.57,4.76,43.57,4.76,29.51-.66,32.58-1.15,35.41-1.7,10.67-2.08,19.26-3.75,28.93-9.53,7.24-4.32,29.19-19.37,36.43-22.13a7.44,7.44,0,0,1,5.11-.34,7.62,7.62,0,0,1,3.74,3.41c4.59,8.47-30.47,42.36-31,42.89a171.25,171.25,0,0,1-26.55,8.85c-57.06,13.94-106.33-5.33-120.5-11.09a2.93,2.93,0,0,0-.35-.14c-2.83-.79-7.13,6.51-8.17,8.17-7.38,11.78-28.79,24.17-42.9,21.1-1.5-.32-5.25-1.19-6.12-3.74-1-2.8,2-6.16,4.76-9.19,4.3-4.74,7.52-6.24,12.6-10.21,7.55-5.91,9-8,9.87-9.2h0c2,0,4.09-6.46,4.09-6.46,2.47-7.81,3.71-11.71,3.4-17.37-.38-6.82-2.5-8.6-5.79-18.72A119.9,119.9,0,0,1,224.62,354.79Z" transform="translate(1482.41 20.16)"/></g></svg>